name C:\Users\u0093377\Documents\Projects\3-Antoinne\AdDB\\GRF\AdDB_Squat_2_GRF.mot
datacolumns 19
datarows 17
range 2.30100000 2.31700000
endheader

                time	     ground_force_vx	     ground_force_vy	     ground_force_vz	     ground_force_px	     ground_force_py	     ground_force_pz	   1_ground_force_vx	   1_ground_force_vy	   1_ground_force_vz	   1_ground_force_px	   1_ground_force_py	   1_ground_force_pz	     ground_torque_x	     ground_torque_y	     ground_torque_z	   1_ground_torque_x	   1_ground_torque_y	   1_ground_torque_z	
          2.30100000	        -21.53842448	        304.66090513	        -32.52524005	         -0.22165500	          0.00000000	          0.20024593	         24.50991513	        331.68658927	         35.37818055	         -0.49205595	          0.00000000	         -0.23878254	          0.00000000	          2.43035660	          0.00000000	          0.00000000	         -1.76690571	          0.00000000	
          2.30200000	        -21.51886525	        304.52896021	        -32.50027166	         -0.22163084	          0.00000000	          0.20020343	         24.45013933	        331.45366471	         35.32888314	         -0.49197998	          0.00000000	         -0.23878958	          0.00000000	          2.42977958	          0.00000000	          0.00000000	         -1.76115044	          0.00000000	
          2.30300000	        -21.49937838	        304.39656241	        -32.47495930	         -0.22160683	          0.00000000	          0.20016090	         24.38995628	        331.21847876	         35.27884041	         -0.49190410	          0.00000000	         -0.23879683	          0.00000000	          2.42914767	          0.00000000	          0.00000000	         -1.75533945	          0.00000000	
          2.30400000	        -21.47998811	        304.26374668	        -32.44931825	         -0.22158297	          0.00000000	          0.20011834	         24.32936300	        330.98106154	         35.22807852	         -0.49182830	          0.00000000	         -0.23880429	          0.00000000	          2.42846129	          0.00000000	          0.00000000	         -1.74947588	          0.00000000	
          2.30500000	        -21.46071617	        304.13055093	        -32.42336157	         -0.22155927	          0.00000000	          0.20007577	         24.26835964	        330.74145960	         35.17662952	         -0.49175261	          0.00000000	         -0.23881195	          0.00000000	          2.42772091	          0.00000000	          0.00000000	         -1.74356280	          0.00000000	
          2.30600000	        -21.44158115	        303.99701444	        -32.39710180	         -0.22153573	          0.00000000	          0.20003320	         24.20695068	        330.49973696	         35.12453210	         -0.49167704	          0.00000000	         -0.23881981	          0.00000000	          2.42692712	          0.00000000	          0.00000000	         -1.73760342	          0.00000000	
          2.30700000	        -21.42259898	        303.86317686	        -32.37055116	         -0.22151236	          0.00000000	          0.19999064	         24.14514501	        330.25597912	         35.07183137	         -0.49160160	          0.00000000	         -0.23882785	          0.00000000	          2.42608066	          0.00000000	          0.00000000	         -1.73160114	          0.00000000	
          2.30800000	        -21.40378400	        303.72907801	        -32.34372084	         -0.22148915	          0.00000000	          0.19994810	         24.08295598	        330.01029498	         35.01857753	         -0.49152631	          0.00000000	         -0.23883607	          0.00000000	          2.42518232	          0.00000000	          0.00000000	         -1.72555951	          0.00000000	
          2.30900000	        -21.38514938	        303.59475903	        -32.31662121	         -0.22146612	          0.00000000	          0.19990560	         24.02040123	        329.76281397	         34.96482410	         -0.49145120	          0.00000000	         -0.23884446	          0.00000000	          2.42423293	          0.00000000	          0.00000000	         -1.71948191	          0.00000000	
          2.31000000	        -21.36670739	        303.46026499	        -32.28926294	         -0.22144327	          0.00000000	          0.19986314	         23.95750234	        329.51368222	         34.91062648	         -0.49137629	          0.00000000	         -0.23885301	          0.00000000	          2.42323336	          0.00000000	          0.00000000	         -1.71337149	          0.00000000	
          2.31100000	        -21.34846979	        303.32564758	        -32.26165726	         -0.22142059	          0.00000000	          0.19982074	         23.89428437	        329.26306138	         34.85604093	         -0.49130162	          0.00000000	         -0.23886169	          0.00000000	          2.42218466	          0.00000000	          0.00000000	         -1.70723123	          0.00000000	
          2.31200000	        -21.33044808	        303.19096538	        -32.23381505	         -0.22139808	          0.00000000	          0.19977841	         23.83077593	        329.01112925	         34.80112337	         -0.49122722	          0.00000000	         -0.23887050	          0.00000000	          2.42108790	          0.00000000	          0.00000000	         -1.70106411	          0.00000000	
          2.31300000	        -21.31265342	        303.05628231	        -32.20574663	         -0.22137576	          0.00000000	          0.19973615	         23.76700923	        328.75807980	         34.74592757	         -0.49115311	          0.00000000	         -0.23887941	          0.00000000	          2.41994409	          0.00000000	          0.00000000	         -1.69487322	          0.00000000	
          2.31400000	        -21.29509664	        302.92166612	        -32.17746217	         -0.22135361	          0.00000000	          0.19969399	         23.70301916	        328.50411978	         34.69050460	         -0.49107935	          0.00000000	         -0.23888840	          0.00000000	          2.41875416	          0.00000000	          0.00000000	         -1.68866170	          0.00000000	
          2.31500000	        -21.27778816	        302.78718740	        -32.14897203	         -0.22133163	          0.00000000	          0.19965194	         23.63884353	        328.24946516	         34.63490484	         -0.49100595	          0.00000000	         -0.23889747	          0.00000000	          2.41751903	          0.00000000	          0.00000000	         -1.68243282	          0.00000000	
          2.31600000	        -21.26073751	        302.65291959	        -32.12028674	         -0.22130984	          0.00000000	          0.19961000	         23.57452683	        327.99434161	         34.57917982	         -0.49093296	          0.00000000	         -0.23890659	          0.00000000	          2.41623953	          0.00000000	          0.00000000	         -1.67618990	          0.00000000	
          2.31700000	        -21.24395284	        302.51893963	        -32.09141750	         -0.22128821	          0.00000000	          0.19956820	         23.51012339	        327.73898493	         34.52338200	         -0.49086043	          0.00000000	         -0.23891572	          0.00000000	          2.41491641	          0.00000000	          0.00000000	         -1.66993601	          0.00000000	
